# xmcd CD database file
# Generated: do mei 29 00:15:47 2003 by KSCD
# 
# Track frame offsets:
#       182
#       11621
#       23146
#       37551
#       51922
#       66108
#       79608
#       89845
#       104387
#       118821
#       132688
#       144083
#       161344
#
# Disc length: 2334 seconds
#
# Revision: 1
# Processed by: cddbd v1.4PL0 Copyright (c) Steve Scherf et al.
# Submitted via: Kscd 1.3.3
#
DISCID=a5091c0d
DTITLE=Miles Davis - Boplicity
DYEAR=1949
DGENRE=Jazz
TTITLE0=Move
TTITLE1=Budo
TTITLE2=Jeru
TTITLE3=Venus de Milo
TTITLE4=Godchild
TTITLE5=Boplicity
TTITLE6=Israel
TTITLE7=Rouge
TTITLE8=Bird of paradise
TTITLE9=Klact-oveseeds-tene
TTITLE10=The hymn
TTITLE11=Out of nowhere
TTITLE12=Boplicity 2
EXTD=YEAR: 1949
EXTT0=
EXTT1=
EXTT2=
EXTT3=
EXTT4=
EXTT5=
EXTT6=
EXTT7=
EXTT8=
EXTT9=
EXTT10=
EXTT11=
EXTT12=
PLAYORDER=
